<?xml version="1.0" encoding="UTF-8" standalone="no"?>
<!-- Created with Inkscape (http://www.inkscape.org/) -->

<svg
   width="400mm"
   height="100mm"
   viewBox="0 0 400 100"
   version="1.1"
   id="svg5"
   inkscape:version="1.1.1 (1:1.1+202109281949+c3084ef5ed)"
   sodipodi:docname="n-re-f1.svg"
   xmlns:inkscape="http://www.inkscape.org/namespaces/inkscape"
   xmlns:sodipodi="http://sodipodi.sourceforge.net/DTD/sodipodi-0.dtd"
   xmlns="http://www.w3.org/2000/svg"
   xmlns:svg="http://www.w3.org/2000/svg">
  <sodipodi:namedview
     id="namedview7"
     pagecolor="#ffffff"
     bordercolor="#666666"
     borderopacity="1.0"
     inkscape:pageshadow="2"
     inkscape:pageopacity="0.0"
     inkscape:pagecheckerboard="0"
     inkscape:document-units="mm"
     showgrid="true"
     inkscape:zoom="0.33411434"
     inkscape:cx="414.52876"
     inkscape:cy="146.65638"
     inkscape:window-width="1920"
     inkscape:window-height="1143"
     inkscape:window-x="0"
     inkscape:window-y="26"
     inkscape:window-maximized="1"
     inkscape:current-layer="layer2"
     inkscape:snap-bbox="false"
     inkscape:snap-object-midpoints="true">
    <inkscape:grid
       type="xygrid"
       id="grid9"
       units="mm"
       spacingx="1"
       spacingy="1" />
  </sodipodi:namedview>
  <defs
     id="defs2" />
  <g
     inkscape:groupmode="layer"
     id="layer2"
     inkscape:label="Design"
     style="display:inline">
    <path
       id="path7201"
       style="fill:#cccccc;stroke:#000000;stroke-width:0.999999px;stroke-linecap:butt;stroke-linejoin:miter;stroke-opacity:1"
       d="M 687.87305,-11.337891 C 676.53446,-11.337891 672.75655,0 661.41797,0 H 0 V 377.95312 H 1511.8105 V 0 H 850.39453 C 839.05595,0 835.27608,-11.337891 823.9375,-11.337891 Z M 566.92969,113.38672 h 377.95312 c 41.87716,0 75.58989,33.71268 75.58989,75.58984 0,41.87716 -33.71273,75.58985 -75.58989,75.58985 H 566.92969 c -41.87716,0 -75.5918,-33.71269 -75.5918,-75.58985 0,-41.87716 33.71464,-75.58984 75.5918,-75.58984 z m -264.56836,60.4707 a 15.11811,15.11811 0 0 1 15.11914,15.11914 15.11811,15.11811 0 0 1 -15.11914,15.11719 15.11811,15.11811 0 0 1 -15.11719,-15.11719 15.11811,15.11811 0 0 1 15.11719,-15.11914 z m 907.08787,0 a 15.11811,15.11811 0 0 1 15.1172,15.11914 15.11811,15.11811 0 0 1 -15.1172,15.11719 15.11811,15.11811 0 0 1 -15.1191,-15.11719 15.11811,15.11811 0 0 1 15.1191,-15.11914 z"
       transform="scale(0.26458333)" />
  </g>
</svg>
