<?xml version="1.0" encoding="UTF-8" standalone="no"?>
<!-- Created with Inkscape (http://www.inkscape.org/) -->

<svg
   width="400mm"
   height="100mm"
   viewBox="0 0 400 100"
   version="1.1"
   id="svg5"
   inkscape:version="1.1.2 (1:1.1+202202050950+0a00cf5339)"
   sodipodi:docname="n-re-f1.svg"
   xmlns:inkscape="http://www.inkscape.org/namespaces/inkscape"
   xmlns:sodipodi="http://sodipodi.sourceforge.net/DTD/sodipodi-0.dtd"
   xmlns="http://www.w3.org/2000/svg"
   xmlns:svg="http://www.w3.org/2000/svg">
  <sodipodi:namedview
     id="namedview7"
     pagecolor="#ffffff"
     bordercolor="#666666"
     borderopacity="1.0"
     inkscape:pageshadow="2"
     inkscape:pageopacity="0.0"
     inkscape:pagecheckerboard="0"
     inkscape:document-units="mm"
     showgrid="true"
     inkscape:zoom="0.47250903"
     inkscape:cx="792.57744"
     inkscape:cy="23.279978"
     inkscape:window-width="1920"
     inkscape:window-height="1143"
     inkscape:window-x="0"
     inkscape:window-y="26"
     inkscape:window-maximized="1"
     inkscape:current-layer="layer2"
     inkscape:snap-bbox="true"
     inkscape:snap-object-midpoints="true"
     inkscape:snap-smooth-nodes="true">
    <inkscape:grid
       type="xygrid"
       id="grid9"
       units="mm"
       spacingx="1"
       spacingy="1" />
  </sodipodi:namedview>
  <defs
     id="defs2" />
  <g
     inkscape:groupmode="layer"
     id="layer2"
     inkscape:label="Design"
     style="display:inline">
    <path
       id="path7201"
       style="fill:#cccccc;stroke:#000000;stroke-width:0.999999px;stroke-linecap:butt;stroke-linejoin:miter;stroke-opacity:1"
       d="M 687.87305 -11.337891 C 676.53446 -11.337891 672.75655 0 661.41797 0 L 0 0 L 0 377.95312 L 1511.8105 377.95312 L 1511.8105 0 L 850.39453 0 C 839.05595 0 835.27608 -11.337891 823.9375 -11.337891 L 687.87305 -11.337891 z M 566.92969 113.38672 L 944.88281 113.38672 C 986.75997 113.38672 1020.4727 147.0994 1020.4727 188.97656 C 1020.4727 230.85372 986.75997 264.56641 944.88281 264.56641 L 566.92969 264.56641 C 525.05253 264.56641 491.33789 230.85372 491.33789 188.97656 C 491.33789 147.0994 525.05253 113.38672 566.92969 113.38672 z M 302.36133 170.07812 A 18.897638 18.897638 0 0 1 321.25977 188.97656 A 18.897638 18.897638 0 0 1 302.36133 207.87305 A 18.897638 18.897638 0 0 1 283.46484 188.97656 A 18.897638 18.897638 0 0 1 302.36133 170.07812 z M 1209.4492 170.07812 A 18.897638 18.897638 0 0 1 1228.3457 188.97656 A 18.897638 18.897638 0 0 1 1209.4492 207.87305 A 18.897638 18.897638 0 0 1 1190.5508 188.97656 A 18.897638 18.897638 0 0 1 1209.4492 170.07812 z "
       transform="scale(0.26458333)" />
  </g>
</svg>
